<svg xmlns="http://www.w3.org/2000/svg" viewBox="0 0 56.538 56.538"><path d="M34.685 22.808s12.342-7.316 20.178 3.022c0 0 2.032 2.35.47 4.6-1.537 2.212-4.968 1.742-6.676-.603-1.54-2.115-5.254-4.8-13.972-7.02z" fill="#88C057"/><path d="M34.685 22.808s7.506-12.152-2.145-19.3c0 0-3.185-2.864-6.062-1.845-2.676.947-2.746 4.678-.284 6.09 2.698 1.546 6.394 5.41 8.49 15.055zM54.604 26.466s.067.086.155.205c.256-.23.505-.477.73-.767 2.085-2.67.415-4.736.415-4.736-6.186-9.306-20.584.807-20.584.807.694.048 1.342.11 1.97.176 4.116-1.502 11.82-2.932 17.314 4.316z" fill="#88C057"/><path d="M32.54 3.507c7.446 5.514 4.682 14.002 3.03 17.596.002.08.008.154.01.235 0 0 10.276-14.236 1.556-19.836 0 0-2.78-2.377-6-.74-.552.28-1.03.645-1.427 1.056 1.61.594 2.83 1.69 2.83 1.69z" fill="#A4E869"/><path d="M50.46 6.13c-3.648-2.362-8.277 1.206-8.277 1.206-.768.92-1.465 1.91-2.108 2.927-.638 4.65-3.667 9.674-5.173 11.934-.09.314-.164.59-.216.787 1.745-1.172 6.828-4.343 11.824-5.164 1.24-.822 2.422-1.725 3.45-2.705 5.516-5.25.5-8.984.5-8.984z" fill="#659C35"/><path d="M34.685 22.808s12.342-7.316 20.178 3.022c0 0 2.032 2.35.47 4.6-1.537 2.212-4.968 1.742-6.676-.603-1.54-2.115-5.254-4.8-13.972-7.02z" fill="#A4E869"/><path d="M35.376 21.7c-.28.548-.472.858-.472.858s.468-.276 1.272-.643c-.26-.072-.524-.143-.8-.214z" fill="#F2681C"/><path d="M41.81 28.277c.42-1.172.394-2.334.13-3.43-1.878-.788-4.185-1.564-7.036-2.29-.69-3.176-1.556-5.715-2.5-7.76-1.304-.454-2.73-.615-4.17-.097C23.707 16.326 3.81 44.955.088 54.937c-.35.94.386 1.675 1.324 1.325 9.982-3.72 38.77-23.46 40.395-27.985z" fill="#ED8F20"/><g fill="#DD7017"><path d="M8.236 46.857c-.674-.322-1.33-.715-1.947-1.168-.447-.33-1.072-.23-1.398.214s-.23 1.07.215 1.397c.718.528 1.48.986 2.267 1.36.14.067.286.1.43.1.374 0 .732-.21.904-.57.237-.498.026-1.096-.472-1.333zM39.16 27.824c-2.045-.78-3.944-2.182-5.64-4.167-.36-.42-.99-.47-1.41-.11-.42.36-.47.99-.11 1.41 1.916 2.242 4.086 3.836 6.45 4.737.116.044.236.066.355.066.403 0 .782-.246.935-.645.196-.516-.063-1.094-.58-1.29zM22.722 19.948c.39.1.7.428.748.854.18 1.632 1.022 3.747 2.505 4.792.45.318.56.942.24 1.394-.194.276-.504.423-.818.423-.2 0-.4-.058-.576-.182-2-1.41-2.995-3.947-3.283-5.847"/><path d="M24.82 27.228c.176.124.377.183.577.183.314 0 .624-.146.818-.422.318-.452.21-1.075-.24-1.394-1.482-1.046-2.326-3.16-2.505-4.792-.047-.425-.36-.753-.748-.854-.385.457-.78.93-1.185 1.432.288 1.9 1.283 4.437 3.284 5.848zM30.348 38.578c-1.89-.306-4.37-1.302-5.758-3.27-.318-.452-.21-1.076.24-1.395.45-.318 1.076-.21 1.395.24 1.045 1.482 3.16 2.327 4.792 2.506.438.047.766.374.856.78"/><path d="M31.018 36.66c-1.633-.18-3.748-1.024-4.792-2.506-.318-.45-.944-.56-1.394-.24-.452.317-.56.94-.24 1.393 1.388 1.97 3.867 2.965 5.757 3.27.518-.382 1.027-.76 1.524-1.135-.09-.408-.42-.735-.856-.783z"/><g><path d="M14.756 30.41c.4.094.72.424.768.856.112 1.025.635 2.35 1.55 2.995.45.32.558.943.24 1.395-.196.276-.505.423-.82.423-.198 0-.4-.06-.575-.183-1.33-.937-2.04-2.56-2.3-3.865"/><path d="M15.92 35.895c.175.124.376.183.576.183.314 0 .623-.147.818-.423.318-.45.21-1.075-.24-1.394-.915-.645-1.437-1.968-1.55-2.994-.046-.433-.367-.763-.767-.856-.38.535-.757 1.075-1.136 1.62.26 1.305.972 2.928 2.3 3.865z"/></g><g><path d="M18.024 47.047c-1.357-.177-3.244-.888-4.285-2.365-.32-.452-.212-1.075.24-1.394.45-.32 1.075-.21 1.393.24.646.915 1.97 1.437 2.994 1.55.55.06.945.553.885 1.102-.003.03-.02.057-.026.087"/><path d="M18.367 45.078c-1.025-.112-2.35-.635-2.994-1.55-.318-.45-.94-.56-1.394-.24-.452.32-.56.943-.24 1.395 1.04 1.477 2.927 2.188 4.284 2.365.4-.257.8-.518 1.202-.78.006-.03.023-.055.026-.086.06-.55-.336-1.044-.885-1.104z"/></g></g></svg>