<svg xmlns="http://www.w3.org/2000/svg" viewBox="0 0 59 59"><path d="M54.22 44.616c.183 1.218.28 2.463.28 3.732-16.433 3.944-33.567 3.944-50 0 0-1.27.096-2.514.28-3.732C2.066 46.076.5 47.602.5 48.848c0 3.59 12.984 6.5 29 6.5s29-2.91 29-6.5c0-1.246-1.567-2.772-4.28-4.232z" fill="#D2D5D7"/><path d="M29.5 55.848c-14.3 0-29.5-2.453-29.5-7 0-1.84 2.47-3.557 4.54-4.673l.88-.474-.147.99c-.162 1.08-.252 2.176-.27 3.263 16.034 3.783 32.96 3.783 48.993 0-.018-1.087-.108-2.184-.27-3.264l-.147-.99.878.475C56.53 45.29 59 47.008 59 48.848c0 4.547-15.2 7-29.5 7zM4.154 45.546C2.162 46.746 1 47.95 1 48.848c0 2.838 11.705 6 28.5 6s28.5-3.162 28.5-6c0-.897-1.162-2.103-3.154-3.302.102.933.154 1.87.154 2.802v.395l-.383.092c-16.432 3.943-33.802 3.943-50.233 0L4 48.742v-.395c0-.93.052-1.868.154-2.8z" fill="#E6E6E6"/><path d="M4.5 48.348c0-13.807 11.193-25 25-25s25 11.193 25 25c-16.433 3.944-33.567 3.944-50 0z" fill="#E6E6E6"/><path d="M29.5 51.792c-8.45 0-16.9-.986-25.117-2.958L4 48.742v-.395c0-14.06 11.44-25.5 25.5-25.5S55 34.287 55 48.347v.396l-.383.092C46.4 50.805 37.95 51.792 29.5 51.792zm-24.497-3.84c16.035 3.786 32.96 3.786 48.994 0C53.785 34.627 42.877 23.85 29.5 23.85S5.215 34.626 5.003 47.953z" fill="#D2D5D7"/><path d="M18.557 21.348c-.256 0-.512-.098-.707-.293-1.795-1.795-1.795-4.717 0-6.512.492-.492.764-1.146.764-1.842s-.27-1.35-.764-1.84c-.39-.392-.39-1.024 0-1.415s1.023-.39 1.414 0c.87.87 1.35 2.026 1.35 3.256s-.48 2.387-1.35 3.257c-1.015 1.016-1.015 2.668 0 3.684.39.392.39 1.024 0 1.415-.196.195-.452.293-.707.293zM40.557 21.348c-.256 0-.512-.098-.707-.293-1.795-1.795-1.795-4.717 0-6.512.492-.492.764-1.146.764-1.842s-.27-1.35-.764-1.84c-.39-.392-.39-1.024 0-1.415s1.023-.39 1.414 0c.87.87 1.35 2.026 1.35 3.256s-.48 2.387-1.35 3.257c-1.015 1.016-1.015 2.668 0 3.684.39.392.39 1.024 0 1.415-.196.195-.452.293-.707.293zM29.557 15.348c-.256 0-.512-.098-.707-.293-1.795-1.795-1.795-4.717 0-6.512.492-.492.764-1.146.764-1.842s-.27-1.35-.764-1.84c-.39-.392-.39-1.024 0-1.415s1.023-.39 1.414 0c.87.87 1.35 2.026 1.35 3.256s-.48 2.387-1.35 3.257c-1.015 1.016-1.015 2.668 0 3.684.39.392.39 1.024 0 1.415-.196.195-.452.293-.707.293z" fill="#E6E6E6"/><path d="M33.947 24.744l-.825-.124c-2.394-.36-4.85-.36-7.243 0l-.826.124-.27-.79c-.19-.558-.283-1.083-.283-1.606 0-2.757 2.244-5 5-5s5 2.243 5 5c0 .523-.092 1.05-.282 1.606l-.27.79zM29.5 22.348c.996 0 2 .058 2.994.172.004-.058.006-.115.006-.172 0-1.654-1.346-3-3-3s-3 1.346-3 3c0 .057.002.114.006.172.994-.115 1.998-.172 2.994-.172z" fill="#D2D5D7"/><path d="M24.845 28.86c-.457 0-.87-.315-.975-.78-.122-.54.217-1.074.756-1.195 1.582-.356 3.217-.537 4.86-.537.557.043 1.014.443 1.013 1 0 .553-.45 1-1 1h-.014c-1.496 0-2.982.164-4.42.488-.074.017-.148.024-.22.024zM9.5 45.348c-.06 0-.12-.005-.18-.017-.542-.098-.903-.618-.804-1.162 1.142-6.26 4.93-11.838 10.134-14.92.476-.282 1.088-.126 1.37.35.282.476.125 1.09-.35 1.37-4.714 2.792-8.148 7.86-9.187 13.56-.087.482-.508.82-.982.82z" fill="#FFF"/></svg>