<svg xmlns="http://www.w3.org/2000/svg" viewBox="0 0 56 56"><ellipse transform="rotate(45 43.914 12.086)" cx="43.914" cy="12.087" rx="16" ry="6" fill="#C56458"/><path d="M42.5 13.5c-2.383-2.38-4.05-4.644-5.12-6.485-.558-.955.506-2.02 1.462-1.463 1.84 1.072 4.104 2.738 6.486 5.12 2.382 2.382 4.048 4.645 5.12 6.486.557.955-.507 2.02-1.463 1.463-1.84-1.072-4.104-2.737-6.486-5.12z" fill="#FBD490"/><path d="M39.67 16.33C33.424 10.08 30.258 3.115 32.6.772c-8.396 8.396-17.562 27.693-11.314 33.94S46.83 31.797 55.226 23.4c-2.342 2.343-9.307-.822-15.555-7.07z" fill="#773F3A"/><path d="M22.693 35.75c-.52-.282-.993-.623-1.406-1.036-.546-.546-.967-1.196-1.288-1.925l-6.873 6.87c-2.34 2.342-5.573 3.553-8.876 3.348-.382-.024-.78.007-1.19.1-1.443.33-2.618 1.5-2.95 2.944C-.493 48.672 1.482 51 4 51c.05 0 .096-.013.146-.015-.288 1.095-.288 2.303 1.317 3.883.716.705 1.657 1.16 2.66 1.13C10.277 55.933 12 54.168 12 52v-.045c-.037-3.305 1.015-6.526 3.352-8.863l7.34-7.34z" fill="#FBD490"/><path d="M38.31 21.667c-.194 0-.39-.057-.563-.175-1.036-.708-2.057-1.563-3.034-2.54s-1.832-1.997-2.54-3.033c-.414-.607-1.098-.954-1.848-.917-.746.032-1.407.435-1.77 1.077-.633 1.125-1.18 2.26-1.628 3.377-.205.512-.786.76-1.3.557-.513-.206-.762-.788-.556-1.3.48-1.198 1.066-2.414 1.743-3.614.703-1.25 1.984-2.033 3.425-2.095 1.448-.063 2.78.604 3.585 1.785.63.922 1.426 1.872 2.302 2.75.89.888 1.814 1.662 2.75 2.302.455.312.572.934.26 1.39-.192.282-.506.435-.825.435zM27.91 33.292c-1.57 0-2.938-.4-3.906-1.37-.914-.914-1.376-2.235-1.374-3.922 0-.553.448-1 1-1 .553.002 1 .45 1 1.003 0 1.138.263 1.98.788 2.505 1.574 1.574 6.136.727 11.09-2.063.484-.273 1.092-.1 1.363.38.272.48.1 1.092-.38 1.362-3.057 1.722-6.668 3.105-9.58 3.105z" fill="#994530"/></svg>