<svg xmlns="http://www.w3.org/2000/svg" viewBox="0 0 57 57"><path fill="#C6C6C6" d="M26 57l-14-6V18l14 5"/><path fill="#E6E6E6" d="M45 52l-19 5V23l19-5"/><path fill="#E2E2E2" d="M38 4L19 8V4l19-4"/><path fill="#D1D1D1" d="M26 23l-14-5 7-10"/><path fill="#EAEAEA" d="M45 18l-19 5-7-15 19-4"/><path fill="#3DABEF" d="M45 37L26 52V37l19-16"/><path fill="#2B9DD6" d="M12 46l14 6V37l-14-6"/><path d="M34.215 16.875c-2.217.58-2.956-1.423-3.305-2.753-.348-1.33-.684-3.44 1.533-4.02 2.217-.58 2.956 1.424 3.304 2.754.348 1.33.685 3.44-1.532 4.02z" fill="#FFF"/><path fill="#EDEDED" d="M34 4.842l2-.42v-4l-2 .42M30 5.684l2-.42v-4l-2 .42M26 6.526l2-.42v-4l-2 .42M22 7.368l2-.42v-4l-2 .42"/></svg>